{"accessors" : [{"bufferView" : 0, "byteOffset" : 0, "componentType" : 5125, "count" : 73992, "type" : "SCALAR", "max" : [73991], "min" : [0]}, {"bufferView" : 1, "byteOffset" : 0, "componentType" : 5126, "count" : 73992, "type" : "VEC3", "max" : [216.6666717529297, 40.30303192138672, 0.3529411852359772], "min" : [0, 0, 0]}, {"bufferView" : 1, "byteOffset" : 12, "componentType" : 5126, "count" : 73992, "type" : "VEC3", "max" : [0, 0, 0], "min" : [0, 0, 0]}], "asset" : {"generator" : "Aspose.3D 20.11", "version" : "2.0"}, "buffers" : [{"uri" : "buffer.bin", "byteLength" : 2071784}], "bufferViews" : [{"buffer" : 0, "byteOffset" : 0, "byteLength" : 295968, "target" : 34963}, {"buffer" : 0, "byteOffset" : 295972, "byteLength" : 1775808, "byteStride" : 24, "target" : 34962}], "meshes" : [{"primitives" : [{"attributes" : {"POSITION" : 1, "NORMAL" : 2}, "indices" : 0, "mode" : 4}]}], "nodes" : [{"mesh" : 0, "name" : ""}], "scene" : 0, "scenes" : [{"nodes" : [0]}]}